<mxfile host="65bd71144e">
    <diagram id="C5RBs43oDa-KdzZeNtuy" name="Flugzeug">
        <mxGraphModel dx="676" dy="435" grid="1" gridSize="10" guides="1" tooltips="1" connect="1" arrows="1" fold="1" page="1" pageScale="1" pageWidth="827" pageHeight="1169" math="0" shadow="0">
            <root>
                <mxCell id="WIyWlLk6GJQsqaUBKTNV-0"/>
                <mxCell id="WIyWlLk6GJQsqaUBKTNV-1" parent="WIyWlLk6GJQsqaUBKTNV-0"/>
                <mxCell id="zkfFHV4jXpPFQw0GAbJ--0" value="Flugzeug" style="swimlane;fontStyle=2;align=center;verticalAlign=top;childLayout=stackLayout;horizontal=1;startSize=26;horizontalStack=0;resizeParent=1;resizeLast=0;collapsible=1;marginBottom=0;rounded=0;shadow=1;strokeWidth=1;" parent="WIyWlLk6GJQsqaUBKTNV-1" vertex="1">
                    <mxGeometry x="220" y="50" width="260" height="330" as="geometry">
                        <mxRectangle x="220" y="50" width="160" height="26" as="alternateBounds"/>
                    </mxGeometry>
                </mxCell>
                <mxCell id="zkfFHV4jXpPFQw0GAbJ--3" value="anzahl_flugzeuge: int&#10;Name: Str&#10;speed_max: int&#10;gewicht_leer: int&#10;gewicht_max: int&#10;passagiere_max: int&#10;tank: int&#10;reichweite: int&#10;verbrauch: int&#10;gewicht: int&#10;passagiere: int&#10;&#10;" style="text;align=left;verticalAlign=top;spacingLeft=4;spacingRight=4;overflow=hidden;rotatable=0;points=[[0,0.5],[1,0.5]];portConstraint=eastwest;rounded=0;shadow=0;html=0;" parent="zkfFHV4jXpPFQw0GAbJ--0" vertex="1">
                    <mxGeometry y="26" width="260" height="174" as="geometry"/>
                </mxCell>
                <mxCell id="zkfFHV4jXpPFQw0GAbJ--4" value="" style="line;html=1;strokeWidth=1;align=left;verticalAlign=middle;spacingTop=-1;spacingLeft=3;spacingRight=3;rotatable=0;labelPosition=right;points=[];portConstraint=eastwest;" parent="zkfFHV4jXpPFQw0GAbJ--0" vertex="1">
                    <mxGeometry y="200" width="260" height="8" as="geometry"/>
                </mxCell>
                <mxCell id="zkfFHV4jXpPFQw0GAbJ--5" value="beschleunigen(wert) float&#10;bremsen(wert) float&#10;passagiere_einsteigen(wert) void&#10;passagiere_aussteigen(wert): void&#10;add(other) float, int&#10;sub(other) float, int&#10;gt(other) bool&#10;__str__(): string&#10;" style="text;align=left;verticalAlign=top;spacingLeft=4;spacingRight=4;overflow=hidden;rotatable=0;points=[[0,0.5],[1,0.5]];portConstraint=eastwest;" parent="zkfFHV4jXpPFQw0GAbJ--0" vertex="1">
                    <mxGeometry y="208" width="260" height="122" as="geometry"/>
                </mxCell>
            </root>
        </mxGraphModel>
    </diagram>
    <diagram id="TYIyRXOuca1dYvEWABh8" name="Flughafen">
        <mxGraphModel dx="676" dy="435" grid="1" gridSize="10" guides="1" tooltips="1" connect="1" arrows="1" fold="1" page="1" pageScale="1" pageWidth="850" pageHeight="1100" math="0" shadow="0">
            <root>
                <mxCell id="0"/>
                <mxCell id="1" parent="0"/>
                <mxCell id="ksPFIGAJBLskk0MnnyNh-1" value="Flughafen" style="swimlane;fontStyle=2;align=center;verticalAlign=top;childLayout=stackLayout;horizontal=1;startSize=26;horizontalStack=0;resizeParent=1;resizeLast=0;collapsible=1;marginBottom=0;rounded=0;shadow=1;strokeWidth=1;" parent="1" vertex="1">
                    <mxGeometry x="220" y="50" width="260" height="210" as="geometry">
                        <mxRectangle x="220" y="50" width="160" height="26" as="alternateBounds"/>
                    </mxGeometry>
                </mxCell>
                <mxCell id="ksPFIGAJBLskk0MnnyNh-2" value="name: string&#10;flugzeuge: [flugzeug]&#10;parkpos: string&#10;personen_gebÃ¤ude: int" style="text;align=left;verticalAlign=top;spacingLeft=4;spacingRight=4;overflow=hidden;rotatable=0;points=[[0,0.5],[1,0.5]];portConstraint=eastwest;rounded=0;shadow=0;html=0;" parent="ksPFIGAJBLskk0MnnyNh-1" vertex="1">
                    <mxGeometry y="26" width="260" height="74" as="geometry"/>
                </mxCell>
                <mxCell id="ksPFIGAJBLskk0MnnyNh-3" value="" style="line;html=1;strokeWidth=1;align=left;verticalAlign=middle;spacingTop=-1;spacingLeft=3;spacingRight=3;rotatable=0;labelPosition=right;points=[];portConstraint=eastwest;" parent="ksPFIGAJBLskk0MnnyNh-1" vertex="1">
                    <mxGeometry y="100" width="260" height="8" as="geometry"/>
                </mxCell>
                <mxCell id="ksPFIGAJBLskk0MnnyNh-4" value="flugzeug_landen(): void&#10;flugzeug_starten(): void&#10;count_personen(): int&#10;count_flugzeuge(): int&#10;__str__(): string&#10;" style="text;align=left;verticalAlign=top;spacingLeft=4;spacingRight=4;overflow=hidden;rotatable=0;points=[[0,0.5],[1,0.5]];portConstraint=eastwest;" parent="ksPFIGAJBLskk0MnnyNh-1" vertex="1">
                    <mxGeometry y="108" width="260" height="102" as="geometry"/>
                </mxCell>
            </root>
        </mxGraphModel>
    </diagram>
</mxfile>